<svg
  width="25"
  height="25"
  viewBox="0 0 20 20"
  fill="none"
  xmlns="http://www.w3.org/2000/svg"
>
  <path
    d="M9.99922 12.1L2.64922 19.45C2.37422 19.725 2.02422 19.8625 1.59922 19.8625C1.17422 19.8625 0.824219 19.725 0.549219 19.45C0.274219 19.175 0.136719 18.825 0.136719 18.4C0.136719 17.975 0.274219 17.625 0.549219 17.35L7.89922 9.99995L0.549219 2.64995C0.274219 2.37495 0.136719 2.02495 0.136719 1.59995C0.136719 1.17495 0.274219 0.824951 0.549219 0.549951C0.824219 0.274951 1.17422 0.137451 1.59922 0.137451C2.02422 0.137451 2.37422 0.274951 2.64922 0.549951L9.99922 7.89995L17.3492 0.549951C17.6242 0.274951 17.9742 0.137451 18.3992 0.137451C18.8242 0.137451 19.1742 0.274951 19.4492 0.549951C19.7242 0.824951 19.8617 1.17495 19.8617 1.59995C19.8617 2.02495 19.7242 2.37495 19.4492 2.64995L12.0992 9.99995L19.4492 17.35C19.7242 17.625 19.8617 17.975 19.8617 18.4C19.8617 18.825 19.7242 19.175 19.4492 19.45C19.1742 19.725 18.8242 19.8625 18.3992 19.8625C17.9742 19.8625 17.6242 19.725 17.3492 19.45L9.99922 12.1Z"
    fill="currentColor"
  />
</svg>
