<svg width="50" height="51" viewBox="0 0 50 51" fill="none" xmlns="http://www.w3.org/2000/svg">
    <path d="M31.2496 19.25C32.347 19.2497 33.4252 19.5383 34.3757 20.0869C35.3261 20.6354 36.1154 21.4246 36.6642 22.375C38.6079 25.1521 41.1079 25.6167 43.1767 25.6167H43.7829L45.3871 25.525H45.8308C43.8246 29.5375 39.2412 31.6188 32.0808 31.775H31.2475H30.9037C29.2461 31.7294 27.6745 31.0272 26.5347 29.8229C25.3948 28.6185 24.78 27.0107 24.8256 25.3531C24.8712 23.6955 25.5734 22.1239 26.7777 20.984C27.9821 19.8442 29.5899 19.2294 31.2475 19.275L31.2496 19.25Z" stroke="#EB5E28" stroke-width="4" stroke-linecap="round" stroke-linejoin="round"/>
    <path d="M18.7502 19.25C17.6528 19.2497 16.5746 19.5383 15.6241 20.0869C14.6736 20.6354 13.8843 21.4246 13.3356 22.375C11.3919 25.1521 8.89186 25.6167 6.82311 25.6167H6.21686L4.6127 25.525H4.16895C6.1752 29.5375 10.7585 31.6188 17.9189 31.775H18.7523H19.096C20.7536 31.7294 22.3252 31.0272 23.4651 29.8229C24.605 28.6185 25.2197 27.0107 25.1742 25.3531C25.1286 23.6955 24.4264 22.1239 23.222 20.984C22.0177 19.8442 20.4099 19.2294 18.7523 19.275L18.7502 19.25Z" stroke="#EB5E28" stroke-width="4" stroke-linecap="round" stroke-linejoin="round"/>
</svg>
