<svg width="48" height="48" viewBox="0 0 48 48" fill="none" xmlns="http://www.w3.org/2000/svg">
    <path d="M35.5856 7.58557L40.7576 12.7576C41.1325 13.1326 41.3431 13.6412 41.3431 14.1716C41.3431 14.7019 41.1325 15.2105 40.7576 15.5856L39.5856 16.7576C39.2106 17.1326 39 17.6412 39 18.1716C39 18.7019 39.2106 19.2105 39.5856 19.5856L40.7576 20.7576C41.1325 21.1326 41.3431 21.6412 41.3431 22.1716C41.3431 22.7019 41.1325 23.2105 40.7576 23.5856L23.5856 40.7576C23.2105 41.1325 22.7019 41.3431 22.1716 41.3431C21.6412 41.3431 21.1326 41.1325 20.7576 40.7576L19.5856 39.5856C19.2105 39.2106 18.7019 39 18.1716 39C17.6412 39 17.1326 39.2106 16.7576 39.5856L15.5856 40.7576C15.2105 41.1325 14.7019 41.3431 14.1716 41.3431C13.6412 41.3431 13.1326 41.1325 12.7576 40.7576L7.58557 35.5856C7.21063 35.2105 7 34.7019 7 34.1716C7 33.6412 7.21063 33.1326 7.58557 32.7576L8.75757 31.5856C9.13252 31.2105 9.34315 30.7019 9.34315 30.1716C9.34315 29.6412 9.13252 29.1326 8.75757 28.7576L7.58557 27.5856C7.21063 27.2105 7 26.7019 7 26.1716C7 25.6412 7.21063 25.1326 7.58557 24.7576L24.7576 7.58557C25.1326 7.21063 25.6412 7 26.1716 7C26.7019 7 27.2105 7.21063 27.5856 7.58557L28.7576 8.75757C29.1326 9.13252 29.6412 9.34315 30.1716 9.34315C30.7019 9.34315 31.2105 9.13252 31.5856 8.75757L32.7576 7.58557C33.1326 7.21063 33.6412 7 34.1716 7C34.7019 7 35.2105 7.21063 35.5856 7.58557Z" stroke="#EB5E28" stroke-width="4" stroke-linecap="round" stroke-linejoin="round"/>
    <path d="M16 32.0001L22.4 25.6001" stroke="#EB5E28" stroke-width="4" stroke-linecap="round" stroke-linejoin="round"/>
    <path d="M25.5996 22.4L31.9996 16" stroke="#EB5E28" stroke-width="4" stroke-linecap="round" stroke-linejoin="round"/>
    <path d="M28 16L32 20" stroke="#EB5E28" stroke-width="4" stroke-linecap="round" stroke-linejoin="round"/>
    <path d="M16 28L20 32" stroke="#EB5E28" stroke-width="4" stroke-linecap="round" stroke-linejoin="round"/>
    <path d="M22 24C22 24.5304 22.2107 25.0391 22.5858 25.4142C22.9609 25.7893 23.4696 26 24 26C24.5304 26 25.0391 25.7893 25.4142 25.4142C25.7893 25.0391 26 24.5304 26 24C26 23.4696 25.7893 22.9609 25.4142 22.5858C25.0391 22.2107 24.5304 22 24 22C23.4696 22 22.9609 22.2107 22.5858 22.5858C22.2107 22.9609 22 23.4696 22 24Z" stroke="#EB5E28" stroke-width="4" stroke-linecap="round" stroke-linejoin="round"/>
</svg>
