<svg width="50" height="50" viewBox="0 0 50 50" fill="none" xmlns="http://www.w3.org/2000/svg">
    <path d="M8.33301 35.4165C8.33301 36.2373 8.49467 37.05 8.80876 37.8083C9.12285 38.5666 9.58322 39.2556 10.1636 39.8359C10.744 40.4163 11.433 40.8767 12.1912 41.1908C12.9495 41.5048 13.7622 41.6665 14.583 41.6665C15.4038 41.6665 16.2165 41.5048 16.9748 41.1908C17.7331 40.8767 18.4221 40.4163 19.0024 39.8359C19.5828 39.2556 20.0432 38.5666 20.3573 37.8083C20.6713 37.05 20.833 36.2373 20.833 35.4165C20.833 34.5957 20.6713 33.783 20.3573 33.0247C20.0432 32.2664 19.5828 31.5775 19.0024 30.9971C18.4221 30.4167 17.7331 29.9563 16.9748 29.6423C16.2165 29.3282 15.4038 29.1665 14.583 29.1665C13.7622 29.1665 12.9495 29.3282 12.1912 29.6423C11.433 29.9563 10.744 30.4167 10.1636 30.9971C9.58322 31.5775 9.12285 32.2664 8.80876 33.0247C8.49467 33.783 8.33301 34.5957 8.33301 35.4165Z" stroke="#EB5E28" stroke-width="4" stroke-linecap="round" stroke-linejoin="round"/>
    <path d="M29.167 35.4165C29.167 37.0741 29.8255 38.6638 30.9976 39.8359C32.1697 41.008 33.7594 41.6665 35.417 41.6665C37.0746 41.6665 38.6643 41.008 39.8364 39.8359C41.0085 38.6638 41.667 37.0741 41.667 35.4165C41.667 33.7589 41.0085 32.1692 39.8364 30.9971C38.6643 29.825 37.0746 29.1665 35.417 29.1665C33.7594 29.1665 32.1697 29.825 30.9976 30.9971C29.8255 32.1692 29.167 33.7589 29.167 35.4165Z" stroke="#EB5E28" stroke-width="4" stroke-linecap="round" stroke-linejoin="round"/>
    <path d="M19.0625 30.9377L37.5 8.3335" stroke="#EB5E28" stroke-width="4" stroke-linecap="round" stroke-linejoin="round"/>
    <path d="M12.5 8.3335L30.9375 30.9377" stroke="#EB5E28" stroke-width="4" stroke-linecap="round" stroke-linejoin="round"/>
</svg>
